<svg width="270" height="60" viewBox="0 0 270 60" fill="none" xmlns="http://www.w3.org/2000/svg">
<rect width="270" height="60" fill="#005FA3"/>
<path d="M58.4912 37V24.1064H60.2402V29.8545H67.2012V24.1064H68.9414V37H67.2012V31.1289H60.2402V37H58.4912ZM70.9189 34.7236C70.9189 34.3662 71.0156 34.0205 71.209 33.6865C71.4082 33.3525 71.7305 33.0566 72.1758 32.7988C72.6211 32.541 73.1982 32.3301 73.9072 32.166C74.6221 31.9961 75.501 31.8994 76.5439 31.876V31.1641C76.5439 30.4551 76.3887 29.9219 76.0781 29.5645C75.7734 29.2012 75.3281 29.0195 74.7422 29.0195C74.3438 29.0195 74.0098 29.0693 73.7402 29.1689C73.4766 29.2686 73.2451 29.3799 73.0459 29.5029C72.8525 29.6201 72.6855 29.7285 72.5449 29.8281C72.4043 29.9277 72.2666 29.9775 72.1318 29.9775C72.0264 29.9775 71.9326 29.9512 71.8506 29.8984C71.7744 29.8398 71.71 29.7666 71.6572 29.6787L71.3672 29.1689C71.8711 28.6826 72.4131 28.3193 72.9932 28.0791C73.5732 27.8389 74.2178 27.7188 74.9268 27.7188C75.4365 27.7188 75.8877 27.8037 76.2803 27.9736C76.6787 28.1436 77.0127 28.3779 77.2822 28.6768C77.5576 28.9756 77.7627 29.3389 77.8975 29.7666C78.0381 30.1885 78.1084 30.6543 78.1084 31.1641V37H77.3965C77.2383 37 77.1182 36.9766 77.0361 36.9297C76.9541 36.877 76.8867 36.7744 76.834 36.6221L76.6582 35.7695C76.418 35.9863 76.1807 36.1797 75.9463 36.3496C75.7178 36.5195 75.4775 36.6631 75.2256 36.7803C74.9795 36.8975 74.7129 36.9854 74.4258 37.0439C74.1445 37.1084 73.8281 37.1406 73.4766 37.1406C73.125 37.1406 72.791 37.0938 72.4746 37C72.1641 36.9004 71.8945 36.751 71.666 36.5518C71.4375 36.3525 71.2559 36.1035 71.1211 35.8047C70.9863 35.5 70.9189 35.1396 70.9189 34.7236ZM72.457 34.6533C72.457 34.8936 72.4951 35.1016 72.5713 35.2773C72.6475 35.4473 72.7529 35.5879 72.8877 35.6992C73.0225 35.8105 73.1807 35.8926 73.3623 35.9453C73.5498 35.9922 73.749 36.0156 73.96 36.0156C74.2412 36.0156 74.499 35.9893 74.7334 35.9365C74.9678 35.8779 75.1875 35.7959 75.3926 35.6904C75.5977 35.585 75.7939 35.4561 75.9814 35.3037C76.1748 35.1514 76.3623 34.9785 76.5439 34.7852V32.8955C75.8057 32.9189 75.1758 32.9775 74.6543 33.0713C74.1328 33.165 73.708 33.2881 73.3799 33.4404C73.0576 33.5869 72.8232 33.7627 72.6768 33.9678C72.5303 34.1729 72.457 34.4014 72.457 34.6533ZM80.543 37V27.8857H82.1602V35.7871H85.8779V27.8857H87.4863V35.7871H91.2041V27.8857H92.8125V37H80.543ZM94.667 34.7236C94.667 34.3662 94.7637 34.0205 94.957 33.6865C95.1562 33.3525 95.4785 33.0566 95.9238 32.7988C96.3691 32.541 96.9463 32.3301 97.6553 32.166C98.3701 31.9961 99.249 31.8994 100.292 31.876V31.1641C100.292 30.4551 100.137 29.9219 99.8262 29.5645C99.5215 29.2012 99.0762 29.0195 98.4902 29.0195C98.0918 29.0195 97.7578 29.0693 97.4883 29.1689C97.2246 29.2686 96.9932 29.3799 96.7939 29.5029C96.6006 29.6201 96.4336 29.7285 96.293 29.8281C96.1523 29.9277 96.0146 29.9775 95.8799 29.9775C95.7744 29.9775 95.6807 29.9512 95.5986 29.8984C95.5225 29.8398 95.458 29.7666 95.4053 29.6787L95.1152 29.1689C95.6191 28.6826 96.1611 28.3193 96.7412 28.0791C97.3213 27.8389 97.9658 27.7188 98.6748 27.7188C99.1846 27.7188 99.6357 27.8037 100.028 27.9736C100.427 28.1436 100.761 28.3779 101.03 28.6768C101.306 28.9756 101.511 29.3389 101.646 29.7666C101.786 30.1885 101.856 30.6543 101.856 31.1641V37H101.145C100.986 37 100.866 36.9766 100.784 36.9297C100.702 36.877 100.635 36.7744 100.582 36.6221L100.406 35.7695C100.166 35.9863 99.9287 36.1797 99.6943 36.3496C99.4658 36.5195 99.2256 36.6631 98.9736 36.7803C98.7275 36.8975 98.4609 36.9854 98.1738 37.0439C97.8926 37.1084 97.5762 37.1406 97.2246 37.1406C96.873 37.1406 96.5391 37.0938 96.2227 37C95.9121 36.9004 95.6426 36.751 95.4141 36.5518C95.1855 36.3525 95.0039 36.1035 94.8691 35.8047C94.7344 35.5 94.667 35.1396 94.667 34.7236ZM96.2051 34.6533C96.2051 34.8936 96.2432 35.1016 96.3193 35.2773C96.3955 35.4473 96.501 35.5879 96.6357 35.6992C96.7705 35.8105 96.9287 35.8926 97.1104 35.9453C97.2979 35.9922 97.4971 36.0156 97.708 36.0156C97.9893 36.0156 98.2471 35.9893 98.4814 35.9365C98.7158 35.8779 98.9355 35.7959 99.1406 35.6904C99.3457 35.585 99.542 35.4561 99.7295 35.3037C99.9229 35.1514 100.11 34.9785 100.292 34.7852V32.8955C99.5537 32.9189 98.9238 32.9775 98.4023 33.0713C97.8809 33.165 97.4561 33.2881 97.1279 33.4404C96.8057 33.5869 96.5713 33.7627 96.4248 33.9678C96.2783 34.1729 96.2051 34.4014 96.2051 34.6533ZM108.896 37V27.8857H116.499V37H114.882V29.1074H110.514V37H108.896ZM119.039 40.085V27.8857H120.006C120.234 27.8857 120.375 27.9971 120.428 28.2197L120.56 29.292C120.952 28.8174 121.4 28.4365 121.904 28.1494C122.408 27.8623 122.985 27.7188 123.636 27.7188C124.163 27.7188 124.638 27.8213 125.06 28.0264C125.487 28.2256 125.851 28.5215 126.149 28.9141C126.454 29.3066 126.686 29.7959 126.844 30.3818C127.008 30.9619 127.09 31.6299 127.09 32.3857C127.09 33.0596 126.999 33.6865 126.817 34.2666C126.636 34.8408 126.375 35.3389 126.035 35.7607C125.701 36.1826 125.288 36.5166 124.796 36.7627C124.31 37.0029 123.759 37.123 123.144 37.123C122.587 37.123 122.109 37.0322 121.711 36.8506C121.312 36.6631 120.961 36.3965 120.656 36.0508V40.085H119.039ZM120.656 34.8027C120.943 35.2012 121.263 35.4824 121.614 35.6465C121.966 35.8047 122.355 35.8838 122.783 35.8838C123.633 35.8838 124.286 35.582 124.743 34.9785C125.2 34.3691 125.429 33.5049 125.429 32.3857C125.429 31.7939 125.376 31.2842 125.271 30.8564C125.171 30.4287 125.021 30.0801 124.822 29.8105C124.623 29.5352 124.377 29.3359 124.084 29.2129C123.797 29.084 123.472 29.0195 123.108 29.0195C122.587 29.0195 122.13 29.1396 121.737 29.3799C121.345 29.6201 120.984 29.957 120.656 30.3906V34.8027ZM128.593 32.2539C128.593 31.6152 128.689 31.0205 128.883 30.4697C129.082 29.9189 129.363 29.4414 129.727 29.0371C130.09 28.6328 130.535 28.3164 131.062 28.0879C131.59 27.8535 132.185 27.7363 132.847 27.7363C133.392 27.7363 133.896 27.8301 134.358 28.0176C134.827 28.1992 135.231 28.4629 135.571 28.8086C135.911 29.1543 136.175 29.582 136.362 30.0918C136.556 30.5957 136.652 31.1699 136.652 31.8145C136.652 32.0664 136.626 32.2363 136.573 32.3242C136.521 32.4062 136.418 32.4473 136.266 32.4473H130.175C130.187 33.0215 130.263 33.5225 130.403 33.9502C130.55 34.3779 130.749 34.7354 131.001 35.0225C131.253 35.3037 131.552 35.5146 131.897 35.6553C132.249 35.7959 132.642 35.8662 133.075 35.8662C133.479 35.8662 133.825 35.8193 134.112 35.7256C134.405 35.6318 134.657 35.5322 134.868 35.4268C135.079 35.3154 135.255 35.2158 135.396 35.1279C135.536 35.0342 135.656 34.9873 135.756 34.9873C135.891 34.9873 135.993 35.0371 136.063 35.1367L136.512 35.7256C136.312 35.9658 136.075 36.1738 135.8 36.3496C135.524 36.5254 135.229 36.6719 134.912 36.7891C134.602 36.9004 134.276 36.9824 133.937 37.0352C133.603 37.0938 133.271 37.123 132.943 37.123C132.311 37.123 131.728 37.0176 131.194 36.8066C130.667 36.5957 130.21 36.2852 129.823 35.875C129.437 35.459 129.135 34.9492 128.918 34.3457C128.701 33.7363 128.593 33.0391 128.593 32.2539ZM130.228 31.4453H135.22C135.22 31.0762 135.167 30.7363 135.062 30.4258C134.956 30.1152 134.801 29.8486 134.596 29.626C134.396 29.3975 134.15 29.2217 133.857 29.0986C133.57 28.9756 133.245 28.9141 132.882 28.9141C132.108 28.9141 131.499 29.1396 131.054 29.5908C130.614 30.0361 130.339 30.6543 130.228 31.4453ZM137.839 35.7256L138.287 35.1367C138.357 35.0371 138.46 34.9873 138.595 34.9873C138.7 34.9873 138.814 35.0342 138.938 35.1279C139.066 35.2158 139.219 35.3184 139.395 35.4355C139.576 35.5469 139.796 35.6494 140.054 35.7432C140.317 35.8369 140.64 35.8838 141.021 35.8838C141.349 35.8838 141.642 35.8428 141.899 35.7607C142.163 35.6787 142.386 35.5674 142.567 35.4268C142.749 35.2803 142.887 35.1104 142.98 34.917C143.074 34.7178 143.121 34.501 143.121 34.2666C143.121 33.8154 142.934 33.4521 142.559 33.1768C142.184 32.9014 141.615 32.7637 140.854 32.7637H139.825V31.7002H140.854C141.182 31.7002 141.478 31.665 141.741 31.5947C142.011 31.5244 142.236 31.4307 142.418 31.3135C142.605 31.1904 142.746 31.0439 142.84 30.874C142.939 30.7041 142.989 30.5195 142.989 30.3203C142.989 30.1387 142.948 29.9688 142.866 29.8105C142.784 29.6465 142.661 29.5059 142.497 29.3887C142.333 29.2656 142.128 29.1689 141.882 29.0986C141.636 29.0283 141.349 28.9932 141.021 28.9932C140.663 28.9932 140.358 29.0283 140.106 29.0986C139.854 29.1689 139.644 29.248 139.474 29.3359C139.304 29.418 139.163 29.4941 139.052 29.5645C138.946 29.6348 138.855 29.6699 138.779 29.6699C138.703 29.6699 138.639 29.6553 138.586 29.626C138.533 29.5967 138.478 29.5352 138.419 29.4414L138.05 28.8174C138.39 28.4951 138.803 28.2344 139.289 28.0352C139.781 27.8359 140.373 27.7363 141.064 27.7363C141.615 27.7363 142.099 27.8037 142.515 27.9385C142.937 28.0732 143.291 28.252 143.578 28.4746C143.865 28.6973 144.082 28.9521 144.229 29.2393C144.375 29.5205 144.448 29.8164 144.448 30.127C144.448 30.3086 144.419 30.499 144.36 30.6982C144.302 30.8916 144.205 31.0791 144.07 31.2607C143.941 31.4365 143.771 31.6035 143.561 31.7617C143.355 31.9199 143.095 32.0459 142.778 32.1396C143.358 32.3154 143.815 32.5967 144.149 32.9834C144.483 33.3643 144.65 33.833 144.65 34.3896C144.65 34.8115 144.554 35.1924 144.36 35.5322C144.173 35.8662 143.915 36.1533 143.587 36.3936C143.265 36.6279 142.89 36.8096 142.462 36.9385C142.034 37.0615 141.586 37.123 141.117 37.123C140.824 37.123 140.525 37.0967 140.221 37.0439C139.916 36.9912 139.62 36.9062 139.333 36.7891C139.046 36.6719 138.773 36.5283 138.516 36.3584C138.264 36.1826 138.038 35.9717 137.839 35.7256ZM146.188 32.2539C146.188 31.6152 146.285 31.0205 146.479 30.4697C146.678 29.9189 146.959 29.4414 147.322 29.0371C147.686 28.6328 148.131 28.3164 148.658 28.0879C149.186 27.8535 149.78 27.7363 150.442 27.7363C150.987 27.7363 151.491 27.8301 151.954 28.0176C152.423 28.1992 152.827 28.4629 153.167 28.8086C153.507 29.1543 153.771 29.582 153.958 30.0918C154.151 30.5957 154.248 31.1699 154.248 31.8145C154.248 32.0664 154.222 32.2363 154.169 32.3242C154.116 32.4062 154.014 32.4473 153.861 32.4473H147.771C147.782 33.0215 147.858 33.5225 147.999 33.9502C148.146 34.3779 148.345 34.7354 148.597 35.0225C148.849 35.3037 149.147 35.5146 149.493 35.6553C149.845 35.7959 150.237 35.8662 150.671 35.8662C151.075 35.8662 151.421 35.8193 151.708 35.7256C152.001 35.6318 152.253 35.5322 152.464 35.4268C152.675 35.3154 152.851 35.2158 152.991 35.1279C153.132 35.0342 153.252 34.9873 153.352 34.9873C153.486 34.9873 153.589 35.0371 153.659 35.1367L154.107 35.7256C153.908 35.9658 153.671 36.1738 153.396 36.3496C153.12 36.5254 152.824 36.6719 152.508 36.7891C152.197 36.9004 151.872 36.9824 151.532 37.0352C151.198 37.0938 150.867 37.123 150.539 37.123C149.906 37.123 149.323 37.0176 148.79 36.8066C148.263 36.5957 147.806 36.2852 147.419 35.875C147.032 35.459 146.73 34.9492 146.514 34.3457C146.297 33.7363 146.188 33.0391 146.188 32.2539ZM147.823 31.4453H152.815C152.815 31.0762 152.763 30.7363 152.657 30.4258C152.552 30.1152 152.396 29.8486 152.191 29.626C151.992 29.3975 151.746 29.2217 151.453 29.0986C151.166 28.9756 150.841 28.9141 150.478 28.9141C149.704 28.9141 149.095 29.1396 148.649 29.5908C148.21 30.0361 147.935 30.6543 147.823 31.4453ZM156.217 37V27.8857H157.834V31.5156H162.202V27.8857H163.819V37H162.202V32.7373H157.834V37H156.217ZM165.34 29.1074V27.8857H173.944V29.1074H170.438V37H168.838V29.1074H165.34ZM174.683 34.7236C174.683 34.3662 174.779 34.0205 174.973 33.6865C175.172 33.3525 175.494 33.0566 175.939 32.7988C176.385 32.541 176.962 32.3301 177.671 32.166C178.386 31.9961 179.265 31.8994 180.308 31.876V31.1641C180.308 30.4551 180.152 29.9219 179.842 29.5645C179.537 29.2012 179.092 29.0195 178.506 29.0195C178.107 29.0195 177.773 29.0693 177.504 29.1689C177.24 29.2686 177.009 29.3799 176.81 29.5029C176.616 29.6201 176.449 29.7285 176.309 29.8281C176.168 29.9277 176.03 29.9775 175.896 29.9775C175.79 29.9775 175.696 29.9512 175.614 29.8984C175.538 29.8398 175.474 29.7666 175.421 29.6787L175.131 29.1689C175.635 28.6826 176.177 28.3193 176.757 28.0791C177.337 27.8389 177.981 27.7188 178.69 27.7188C179.2 27.7188 179.651 27.8037 180.044 27.9736C180.442 28.1436 180.776 28.3779 181.046 28.6768C181.321 28.9756 181.526 29.3389 181.661 29.7666C181.802 30.1885 181.872 30.6543 181.872 31.1641V37H181.16C181.002 37 180.882 36.9766 180.8 36.9297C180.718 36.877 180.65 36.7744 180.598 36.6221L180.422 35.7695C180.182 35.9863 179.944 36.1797 179.71 36.3496C179.481 36.5195 179.241 36.6631 178.989 36.7803C178.743 36.8975 178.477 36.9854 178.189 37.0439C177.908 37.1084 177.592 37.1406 177.24 37.1406C176.889 37.1406 176.555 37.0938 176.238 37C175.928 36.9004 175.658 36.751 175.43 36.5518C175.201 36.3525 175.02 36.1035 174.885 35.8047C174.75 35.5 174.683 35.1396 174.683 34.7236ZM176.221 34.6533C176.221 34.8936 176.259 35.1016 176.335 35.2773C176.411 35.4473 176.517 35.5879 176.651 35.6992C176.786 35.8105 176.944 35.8926 177.126 35.9453C177.313 35.9922 177.513 36.0156 177.724 36.0156C178.005 36.0156 178.263 35.9893 178.497 35.9365C178.731 35.8779 178.951 35.7959 179.156 35.6904C179.361 35.585 179.558 35.4561 179.745 35.3037C179.938 35.1514 180.126 34.9785 180.308 34.7852V32.8955C179.569 32.9189 178.939 32.9775 178.418 33.0713C177.896 33.165 177.472 33.2881 177.144 33.4404C176.821 33.5869 176.587 33.7627 176.44 33.9678C176.294 34.1729 176.221 34.4014 176.221 34.6533ZM184.307 37V27.8857H185.924V35.7871H190.292V27.8857H191.909V35.7871H193.57V39.6455C193.57 39.8037 193.526 39.9238 193.438 40.0059C193.351 40.0938 193.239 40.1377 193.104 40.1377H192.12V37H184.307ZM195.188 37.0088V27.8945H196.805V34.082C196.805 34.1934 196.799 34.3193 196.787 34.46C196.775 34.5947 196.761 34.7295 196.743 34.8643C196.79 34.7471 196.84 34.6416 196.893 34.5479C196.951 34.4482 197.007 34.3574 197.06 34.2754C197.065 34.2637 197.133 34.1699 197.262 33.9941C197.396 33.8125 197.566 33.5811 197.771 33.2998C197.982 33.0127 198.22 32.6904 198.483 32.333C198.747 31.9756 199.014 31.6123 199.283 31.2432C199.922 30.376 200.648 29.3916 201.463 28.29C201.527 28.1963 201.609 28.1055 201.709 28.0176C201.814 27.9297 201.929 27.8857 202.052 27.8857H203.01V37H201.41V30.8037C201.41 30.6924 201.416 30.5693 201.428 30.4346C201.439 30.2939 201.454 30.1533 201.472 30.0127C201.419 30.1299 201.363 30.2412 201.305 30.3467C201.246 30.4463 201.19 30.5371 201.138 30.6191C201.126 30.6309 201.056 30.7275 200.927 30.9092C200.798 31.085 200.628 31.3164 200.417 31.6035C200.206 31.8848 199.969 32.2041 199.705 32.5615C199.441 32.9189 199.175 33.2822 198.905 33.6514C198.267 34.5186 197.546 35.5029 196.743 36.6045C196.679 36.6982 196.594 36.7891 196.488 36.877C196.389 36.9648 196.28 37.0088 196.163 37.0088H195.188ZM204.398 37L207.044 33.5635C207.255 33.2178 207.542 32.9775 207.905 32.8428C207.442 32.7842 207.05 32.6787 206.728 32.5264C206.411 32.3682 206.153 32.1836 205.954 31.9727C205.755 31.7559 205.608 31.5186 205.515 31.2607C205.427 31.0029 205.383 30.7422 205.383 30.4785C205.383 30.168 205.444 29.8574 205.567 29.5469C205.69 29.2305 205.887 28.9521 206.156 28.7119C206.426 28.4658 206.774 28.2666 207.202 28.1143C207.636 27.9619 208.157 27.8857 208.767 27.8857H211.869V37H210.34V33.1592H209.637C209.467 33.1592 209.326 33.1738 209.215 33.2031C209.109 33.2266 209.016 33.2617 208.934 33.3086C208.852 33.3555 208.781 33.417 208.723 33.4932C208.664 33.5693 208.6 33.6543 208.529 33.748L206.534 36.4463C206.435 36.6396 206.309 36.7803 206.156 36.8682C206.01 36.9561 205.796 37 205.515 37H204.398ZM206.991 30.5664C206.991 31.0586 207.17 31.4453 207.527 31.7266C207.891 32.002 208.386 32.1396 209.013 32.1396H210.34V28.9668H208.811C208.471 28.9668 208.184 29.0166 207.949 29.1162C207.715 29.21 207.527 29.3359 207.387 29.4941C207.246 29.6465 207.144 29.8164 207.079 30.0039C207.021 30.1914 206.991 30.3789 206.991 30.5664Z" fill="white"/>
</svg>
